<?xml version="1.0" encoding="UTF-8" standalone="no"?>
<!DOCTYPE svg PUBLIC "-//W3C//DTD SVG 1.1//EN"
 "http://www.w3.org/Graphics/SVG/1.1/DTD/svg11.dtd">
<!-- Generated by graphviz version 2.38.0 (20140413.2041)
 -->
<!-- Title: controllers_diagram Pages: 1 -->
<svg width="379pt" height="354pt"
 viewBox="0.00 0.00 379.27 354.00" xmlns="http://www.w3.org/2000/svg" xmlns:xlink="http://www.w3.org/1999/xlink">
<g id="graph0" class="graph" transform="scale(1 1) rotate(0) translate(93.8208 245.5)">
<title>controllers_diagram</title>
<polygon fill="none" stroke="none" points="-93.8208,108.5 -93.8208,-245.5 285.45,-245.5 285.45,108.5 -93.8208,108.5"/>
<!-- _diagram_info -->
<g id="node1" class="node"><title>_diagram_info</title>
<text text-anchor="start" x="82.5503" y="-104.1" font-family="Times,serif" font-size="13.00">Controllers diagram</text>
<text text-anchor="start" x="82.5503" y="-91.1" font-family="Times,serif" font-size="13.00">Date: Oct 14 2015 &#45; 16:19</text>
<text text-anchor="start" x="82.5503" y="-78.1" font-family="Times,serif" font-size="13.00">Migration version: 20151014201711</text>
<text text-anchor="start" x="82.5503" y="-65.1" font-family="Times,serif" font-size="13.00">Generated by RailRoady 1.3.1</text>
<text text-anchor="start" x="82.5503" y="-52.1" font-family="Times,serif" font-size="13.00">http://railroady.prestonlee.com</text>
</g>
<!-- ApplicationController -->
<g id="node2" class="node"><title>ApplicationController</title>
<path fill="none" stroke="black" d="M-77.8208,-136C-77.8208,-136 37.8208,-136 37.8208,-136 43.8208,-136 49.8208,-142 49.8208,-148 49.8208,-148 49.8208,-216 49.8208,-216 49.8208,-222 43.8208,-228 37.8208,-228 37.8208,-228 -77.8208,-228 -77.8208,-228 -83.8208,-228 -89.8208,-222 -89.8208,-216 -89.8208,-216 -89.8208,-148 -89.8208,-148 -89.8208,-142 -83.8208,-136 -77.8208,-136"/>
<text text-anchor="middle" x="-20" y="-212.8" font-family="Times,serif" font-size="14.00">ApplicationController</text>
<polyline fill="none" stroke="black" points="-89.8208,-206 49.8208,-206 "/>
<polyline fill="none" stroke="black" points="-89.8208,-182 49.8208,-182 "/>
<polyline fill="none" stroke="black" points="-89.8208,-158 49.8208,-158 "/>
<text text-anchor="start" x="-81.8208" y="-142.8" font-family="Times,serif" font-size="14.00">_layout</text>
</g>
<!-- ItemsController -->
<g id="node3" class="node"><title>ItemsController</title>
<path fill="none" stroke="black" d="M-48.3242,104C-48.3242,104 32.3242,104 32.3242,104 38.3242,104 44.3242,98 44.3242,92 44.3242,92 44.3242,-86 44.3242,-86 44.3242,-92 38.3242,-98 32.3242,-98 32.3242,-98 -48.3242,-98 -48.3242,-98 -54.3242,-98 -60.3242,-92 -60.3242,-86 -60.3242,-86 -60.3242,92 -60.3242,92 -60.3242,98 -54.3242,104 -48.3242,104"/>
<text text-anchor="middle" x="-8" y="-82.8" font-family="Times,serif" font-size="14.00">ItemsController</text>
<polyline fill="none" stroke="black" points="-60.3242,-76 44.3242,-76 "/>
<text text-anchor="start" x="-52.3242" y="-60.8" font-family="Times,serif" font-size="14.00">create</text>
<text text-anchor="start" x="-52.3242" y="-46.8" font-family="Times,serif" font-size="14.00">destroy</text>
<text text-anchor="start" x="-52.3242" y="-32.8" font-family="Times,serif" font-size="14.00">edit</text>
<text text-anchor="start" x="-52.3242" y="-18.8" font-family="Times,serif" font-size="14.00">index</text>
<text text-anchor="start" x="-52.3242" y="-4.8" font-family="Times,serif" font-size="14.00">new</text>
<text text-anchor="start" x="-52.3242" y="9.2" font-family="Times,serif" font-size="14.00">show</text>
<text text-anchor="start" x="-52.3242" y="23.2" font-family="Times,serif" font-size="14.00">update</text>
<polyline fill="none" stroke="black" points="-60.3242,30 44.3242,30 "/>
<polyline fill="none" stroke="black" points="-60.3242,54 44.3242,54 "/>
<text text-anchor="start" x="-52.3242" y="69.2" font-family="Times,serif" font-size="14.00">_layout</text>
<text text-anchor="start" x="-52.3242" y="83.2" font-family="Times,serif" font-size="14.00">item_params</text>
<text text-anchor="start" x="-52.3242" y="97.2" font-family="Times,serif" font-size="14.00">set_item</text>
</g>
<!-- OmniauthCallbacksController -->
<g id="node4" class="node"><title>OmniauthCallbacksController</title>
<path fill="none" stroke="black" d="M86.6274,74C86.6274,74 247.373,74 247.373,74 253.373,74 259.373,68 259.373,62 259.373,62 259.373,-4 259.373,-4 259.373,-10 253.373,-16 247.373,-16 247.373,-16 86.6274,-16 86.6274,-16 80.6274,-16 74.6274,-10 74.6274,-4 74.6274,-4 74.6274,62 74.6274,62 74.6274,68 80.6274,74 86.6274,74"/>
<text text-anchor="middle" x="167" y="-0.8" font-family="Times,serif" font-size="14.00">OmniauthCallbacksController</text>
<polyline fill="none" stroke="black" points="74.6274,6 259.373,6 "/>
<text text-anchor="start" x="82.6274" y="21.2" font-family="Times,serif" font-size="14.00">facebook</text>
<polyline fill="none" stroke="black" points="74.6274,28 259.373,28 "/>
<polyline fill="none" stroke="black" points="74.6274,52 259.373,52 "/>
<text text-anchor="start" x="82.6274" y="67.2" font-family="Times,serif" font-size="14.00">_layout</text>
</g>
<!-- UsersController -->
<g id="node5" class="node"><title>UsersController</title>
<path fill="none" stroke="black" d="M162.286,-151C162.286,-151 243.714,-151 243.714,-151 249.714,-151 255.714,-157 255.714,-163 255.714,-163 255.714,-229 255.714,-229 255.714,-235 249.714,-241 243.714,-241 243.714,-241 162.286,-241 162.286,-241 156.286,-241 150.286,-235 150.286,-229 150.286,-229 150.286,-163 150.286,-163 150.286,-157 156.286,-151 162.286,-151"/>
<text text-anchor="middle" x="203" y="-225.8" font-family="Times,serif" font-size="14.00">UsersController</text>
<polyline fill="none" stroke="black" points="150.286,-219 255.714,-219 "/>
<text text-anchor="start" x="158.286" y="-203.8" font-family="Times,serif" font-size="14.00">create_or_login</text>
<polyline fill="none" stroke="black" points="150.286,-197 255.714,-197 "/>
<polyline fill="none" stroke="black" points="150.286,-173 255.714,-173 "/>
<text text-anchor="start" x="158.286" y="-157.8" font-family="Times,serif" font-size="14.00">_layout</text>
</g>
</g>
</svg>
