<?xml version="1.0" encoding="UTF-8" standalone="no"?>
<!DOCTYPE svg PUBLIC "-//W3C//DTD SVG 1.1//EN"
 "http://www.w3.org/Graphics/SVG/1.1/DTD/svg11.dtd">
<!-- Generated by graphviz version 2.38.0 (20140413.2041)
 -->
<!-- Title: models_diagram Pages: 1 -->
<svg width="358pt" height="167pt"
 viewBox="0.00 0.00 358.45 167.00" xmlns="http://www.w3.org/2000/svg" xmlns:xlink="http://www.w3.org/1999/xlink">
<g id="graph0" class="graph" transform="scale(1 1) rotate(0) translate(4 163)">
<title>models_diagram</title>
<polygon fill="none" stroke="none" points="-4,4 -4,-163 354.45,-163 354.45,4 -4,4"/>
<!-- _diagram_info -->
<g id="node1" class="node"><title>_diagram_info</title>
<text text-anchor="start" x="8" y="-144.6" font-family="Times,serif" font-size="13.00">Models diagram</text>
<text text-anchor="start" x="8" y="-131.6" font-family="Times,serif" font-size="13.00">Date: Oct 14 2015 &#45; 16:19</text>
<text text-anchor="start" x="8" y="-118.6" font-family="Times,serif" font-size="13.00">Migration version: 20151014201711</text>
<text text-anchor="start" x="8" y="-105.6" font-family="Times,serif" font-size="13.00">Generated by RailRoady 1.3.1</text>
<text text-anchor="start" x="8" y="-92.6" font-family="Times,serif" font-size="13.00">http://railroady.prestonlee.com</text>
</g>
<!-- Item -->
<g id="node2" class="node"><title>Item</title>
<ellipse fill="none" stroke="black" cx="251.45" cy="-122.5" rx="27" ry="18"/>
<text text-anchor="middle" x="251.45" y="-118.3" font-family="Times,serif" font-size="14.00">Item</text>
</g>
<!-- ItemAttachment -->
<g id="node3" class="node"><title>ItemAttachment</title>
<ellipse fill="none" stroke="black" cx="251.45" cy="-18" rx="67.6356" ry="18"/>
<text text-anchor="middle" x="251.45" y="-13.8" font-family="Times,serif" font-size="14.00">ItemAttachment</text>
</g>
<!-- Item&#45;&gt;ItemAttachment -->
<g id="edge1" class="edge"><title>Item&#45;&gt;ItemAttachment</title>
<path fill="none" stroke="#192c1c" d="M251.45,-96.0171C251.45,-80.9864 251.45,-61.959 251.45,-46.5774"/>
<ellipse fill="none" stroke="#192c1c" cx="251.45" cy="-100.112" rx="4" ry="4"/>
<polygon fill="#192c1c" stroke="#192c1c" points="251.45,-46.1309 255.95,-36.1309 251.45,-41.1309 251.45,-36.1309 251.45,-36.1309 251.45,-36.1309 251.45,-41.1309 246.95,-36.131 251.45,-46.1309 251.45,-46.1309"/>
<text text-anchor="middle" x="284.881" y="-56.8" font-family="Times,serif" font-size="14.00">attachments</text>
</g>
<!-- User -->
<g id="node4" class="node"><title>User</title>
<ellipse fill="none" stroke="black" cx="323.45" cy="-122.5" rx="27" ry="18"/>
<text text-anchor="middle" x="323.45" y="-118.3" font-family="Times,serif" font-size="14.00">User</text>
</g>
</g>
</svg>
