<?xml version="1.0" encoding="UTF-8" standalone="no"?>
<!DOCTYPE svg PUBLIC "-//W3C//DTD SVG 1.1//EN"
 "http://www.w3.org/Graphics/SVG/1.1/DTD/svg11.dtd">
<!-- Generated by graphviz version 2.38.0 (20140413.2041)
 -->
<!-- Title: models_diagram Pages: 1 -->
<svg width="597pt" height="442pt"
 viewBox="0.00 0.00 596.73 442.00" xmlns="http://www.w3.org/2000/svg" xmlns:xlink="http://www.w3.org/1999/xlink">
<g id="graph0" class="graph" transform="scale(1 1) rotate(0) translate(4 438)">
<title>models_diagram</title>
<polygon fill="none" stroke="none" points="-4,4 -4,-438 592.728,-438 592.728,4 -4,4"/>
<!-- _diagram_info -->
<g id="node1" class="node"><title>_diagram_info</title>
<text text-anchor="start" x="8" y="-321.6" font-family="Times,serif" font-size="13.00">Models diagram</text>
<text text-anchor="start" x="8" y="-308.6" font-family="Times,serif" font-size="13.00">Date: Oct 14 2015 &#45; 16:19</text>
<text text-anchor="start" x="8" y="-295.6" font-family="Times,serif" font-size="13.00">Migration version: 20151014201711</text>
<text text-anchor="start" x="8" y="-282.6" font-family="Times,serif" font-size="13.00">Generated by RailRoady 1.3.1</text>
<text text-anchor="start" x="8" y="-269.6" font-family="Times,serif" font-size="13.00">http://railroady.prestonlee.com</text>
</g>
<!-- Item -->
<g id="node2" class="node"><title>Item</title>
<path fill="none" stroke="black" d="M236.672,-235.5C236.672,-235.5 354.228,-235.5 354.228,-235.5 360.228,-235.5 366.228,-241.5 366.228,-247.5 366.228,-247.5 366.228,-351.5 366.228,-351.5 366.228,-357.5 360.228,-363.5 354.228,-363.5 354.228,-363.5 236.672,-363.5 236.672,-363.5 230.672,-363.5 224.672,-357.5 224.672,-351.5 224.672,-351.5 224.672,-247.5 224.672,-247.5 224.672,-241.5 230.672,-235.5 236.672,-235.5"/>
<text text-anchor="middle" x="295.45" y="-348.3" font-family="Times,serif" font-size="14.00">Item</text>
<polyline fill="none" stroke="black" points="224.672,-341.5 366.228,-341.5 "/>
<text text-anchor="start" x="232.672" y="-326.3" font-family="Times,serif" font-size="14.00">id :integer</text>
<text text-anchor="start" x="232.672" y="-312.3" font-family="Times,serif" font-size="14.00">title :string</text>
<text text-anchor="start" x="232.672" y="-298.3" font-family="Times,serif" font-size="14.00">description :text</text>
<text text-anchor="start" x="232.672" y="-284.3" font-family="Times,serif" font-size="14.00">status :string</text>
<text text-anchor="start" x="232.672" y="-270.3" font-family="Times,serif" font-size="14.00">created_at :datetime</text>
<text text-anchor="start" x="232.672" y="-256.3" font-family="Times,serif" font-size="14.00">updated_at :datetime</text>
<text text-anchor="start" x="232.672" y="-242.3" font-family="Times,serif" font-size="14.00">created_by_id :integer</text>
</g>
<!-- ItemAttachment -->
<g id="node3" class="node"><title>ItemAttachment</title>
<path fill="none" stroke="black" d="M236.672,-0.5C236.672,-0.5 354.228,-0.5 354.228,-0.5 360.228,-0.5 366.228,-6.5 366.228,-12.5 366.228,-12.5 366.228,-102.5 366.228,-102.5 366.228,-108.5 360.228,-114.5 354.228,-114.5 354.228,-114.5 236.672,-114.5 236.672,-114.5 230.672,-114.5 224.672,-108.5 224.672,-102.5 224.672,-102.5 224.672,-12.5 224.672,-12.5 224.672,-6.5 230.672,-0.5 236.672,-0.5"/>
<text text-anchor="middle" x="295.45" y="-99.3" font-family="Times,serif" font-size="14.00">ItemAttachment</text>
<polyline fill="none" stroke="black" points="224.672,-92.5 366.228,-92.5 "/>
<text text-anchor="start" x="232.672" y="-77.3" font-family="Times,serif" font-size="14.00">id :integer</text>
<text text-anchor="start" x="232.672" y="-63.3" font-family="Times,serif" font-size="14.00">item_id :integer</text>
<text text-anchor="start" x="232.672" y="-49.3" font-family="Times,serif" font-size="14.00">created_by_id :integer</text>
<text text-anchor="start" x="232.672" y="-35.3" font-family="Times,serif" font-size="14.00">file :string</text>
<text text-anchor="start" x="232.672" y="-21.3" font-family="Times,serif" font-size="14.00">created_at :datetime</text>
<text text-anchor="start" x="232.672" y="-7.3" font-family="Times,serif" font-size="14.00">updated_at :datetime</text>
</g>
<!-- Item&#45;&gt;ItemAttachment -->
<g id="edge1" class="edge"><title>Item&#45;&gt;ItemAttachment</title>
<path fill="none" stroke="#dff983" d="M295.45,-227.397C295.45,-194.886 295.45,-156.599 295.45,-124.705"/>
<ellipse fill="none" stroke="#dff983" cx="295.45" cy="-231.443" rx="4" ry="4"/>
<polygon fill="#dff983" stroke="#dff983" points="295.45,-124.589 299.95,-114.589 295.45,-119.589 295.45,-114.589 295.45,-114.589 295.45,-114.589 295.45,-119.589 290.95,-114.589 295.45,-124.589 295.45,-124.589"/>
<text text-anchor="middle" x="328.881" y="-135.8" font-family="Times,serif" font-size="14.00">attachments</text>
</g>
<!-- User -->
<g id="node4" class="node"><title>User</title>
<path fill="none" stroke="black" d="M396.172,-165.5C396.172,-165.5 576.728,-165.5 576.728,-165.5 582.728,-165.5 588.728,-171.5 588.728,-177.5 588.728,-177.5 588.728,-421.5 588.728,-421.5 588.728,-427.5 582.728,-433.5 576.728,-433.5 576.728,-433.5 396.172,-433.5 396.172,-433.5 390.172,-433.5 384.172,-427.5 384.172,-421.5 384.172,-421.5 384.172,-177.5 384.172,-177.5 384.172,-171.5 390.172,-165.5 396.172,-165.5"/>
<text text-anchor="middle" x="486.45" y="-418.3" font-family="Times,serif" font-size="14.00">User</text>
<polyline fill="none" stroke="black" points="384.172,-411.5 588.728,-411.5 "/>
<text text-anchor="start" x="392.172" y="-396.3" font-family="Times,serif" font-size="14.00">id :integer</text>
<text text-anchor="start" x="392.172" y="-382.3" font-family="Times,serif" font-size="14.00">email :string</text>
<text text-anchor="start" x="392.172" y="-368.3" font-family="Times,serif" font-size="14.00">encrypted_password :string</text>
<text text-anchor="start" x="392.172" y="-354.3" font-family="Times,serif" font-size="14.00">reset_password_token :string</text>
<text text-anchor="start" x="392.172" y="-340.3" font-family="Times,serif" font-size="14.00">reset_password_sent_at :datetime</text>
<text text-anchor="start" x="392.172" y="-326.3" font-family="Times,serif" font-size="14.00">remember_created_at :datetime</text>
<text text-anchor="start" x="392.172" y="-312.3" font-family="Times,serif" font-size="14.00">sign_in_count :integer</text>
<text text-anchor="start" x="392.172" y="-298.3" font-family="Times,serif" font-size="14.00">current_sign_in_at :datetime</text>
<text text-anchor="start" x="392.172" y="-284.3" font-family="Times,serif" font-size="14.00">last_sign_in_at :datetime</text>
<text text-anchor="start" x="392.172" y="-270.3" font-family="Times,serif" font-size="14.00">current_sign_in_ip :inet</text>
<text text-anchor="start" x="392.172" y="-256.3" font-family="Times,serif" font-size="14.00">last_sign_in_ip :inet</text>
<text text-anchor="start" x="392.172" y="-242.3" font-family="Times,serif" font-size="14.00">created_at :datetime</text>
<text text-anchor="start" x="392.172" y="-228.3" font-family="Times,serif" font-size="14.00">updated_at :datetime</text>
<text text-anchor="start" x="392.172" y="-214.3" font-family="Times,serif" font-size="14.00">first_name :string</text>
<text text-anchor="start" x="392.172" y="-200.3" font-family="Times,serif" font-size="14.00">last_name :string</text>
<text text-anchor="start" x="392.172" y="-186.3" font-family="Times,serif" font-size="14.00">provider :string</text>
<text text-anchor="start" x="392.172" y="-172.3" font-family="Times,serif" font-size="14.00">uid :string</text>
</g>
</g>
</svg>
